{
  "accessors": [
    {
      "bufferView": 2,
      "componentType": 5126,
      "count": 256,
      "max": [
        -0.5448079705238342,
        0.11803299933671951,
        0.11884500086307526
      ],
      "min": [
        -0.7223520278930664,
        -0.11803299933671951,
        -0.11722200363874435
      ],
      "type": "VEC3"
    },
    {
      "bufferView": 2,
      "byteOffset": 3072,
      "componentType": 5126,
      "count": 256,
      "max": [
        0.9587635397911072,
        1.0,
        1.0
      ],
      "min": [
        -0.9382666349411011,
        -1.0,
        -1.0
      ],
      "type": "VEC3"
    },
    {
      "bufferView": 3,
      "componentType": 5126,
      "count": 256,
      "max": [
        0.12090300023555756,
        0.9999719858169556,
        1.0,
        -1.0
      ],
      "min": [
        -0.1183599978685379,
        -0.9999719858169556,
        -1.0,
        -1.0
      ],
      "type": "VEC4"
    },
    {
      "bufferView": 1,
      "componentType": 5126,
      "count": 256,
      "max": [
        0.8191570043563843,
        0.5478749871253967
      ],
      "min": [
        0.5965999960899353,
        0.47686201333999634
      ],
      "type": "VEC2"
    },
    {
      "bufferView": 0,
      "componentType": 5125,
      "count": 720,
      "type": "SCALAR"
    },
    {
      "bufferView": 2,
      "byteOffset": 6144,
      "componentType": 5126,
      "count": 538,
      "max": [
        0.7663099765777588,
        0.03588870167732239,
        0.7722650170326233
      ],
      "min": [
        -0.7782189846038818,
        -0.03807289898395538,
        -0.7722650170326233
      ],
      "type": "VEC3"
    },
    {
      "bufferView": 2,
      "byteOffset": 12600,
      "componentType": 5126,
      "count": 538,
      "max": [
        1.0,
        0.9999958872795105,
        1.0
      ],
      "min": [
        -1.0,
        -0.9999958872795105,
        -1.0
      ],
      "type": "VEC3"
    },
    {
      "bufferView": 3,
      "byteOffset": 4096,
      "componentType": 5126,
      "count": 538,
      "max": [
        1.0,
        1.0,
        0.4466330111026764,
        1.0
      ],
      "min": [
        -8.965210145106539e-05,
        -0.9962930083274841,
        -0.4467740058898926,
        1.0
      ],
      "type": "VEC4"
    },
    {
      "bufferView": 1,
      "byteOffset": 2048,
      "componentType": 5126,
      "count": 538,
      "max": [
        0.9637330174446106,
        0.9599869847297668
      ],
      "min": [
        0.036890000104904175,
        0.013693000189960003
      ],
      "type": "VEC2"
    },
    {
      "bufferView": 0,
      "byteOffset": 2880,
      "componentType": 5125,
      "count": 1728,
      "type": "SCALAR"
    },
    {
      "bufferView": 2,
      "byteOffset": 19056,
      "componentType": 5126,
      "count": 256,
      "max": [
        0.7152550220489502,
        0.11803299933671951,
        0.11884500086307526
      ],
      "min": [
        0.5377110242843628,
        -0.11803299933671951,
        -0.11722200363874435
      ],
      "type": "VEC3"
    },
    {
      "bufferView": 2,
      "byteOffset": 22128,
      "componentType": 5126,
      "count": 256,
      "max": [
        0.9382666349411011,
        1.0,
        1.0
      ],
      "min": [
        -0.9587635397911072,
        -1.0,
        -1.0
      ],
      "type": "VEC3"
    },
    {
      "bufferView": 3,
      "byteOffset": 12704,
      "componentType": 5126,
      "count": 256,
      "max": [
        0.1183599978685379,
        0.9999719858169556,
        1.0,
        1.0
      ],
      "min": [
        -0.12090300023555756,
        -0.9999719858169556,
        -1.0,
        1.0
      ],
      "type": "VEC4"
    },
    {
      "bufferView": 1,
      "byteOffset": 6352,
      "componentType": 5126,
      "count": 256,
      "max": [
        0.8191570043563843,
        0.5478749871253967
      ],
      "min": [
        0.5965999960899353,
        0.47686201333999634
      ],
      "type": "VEC2"
    },
    {
      "bufferView": 0,
      "byteOffset": 9792,
      "componentType": 5125,
      "count": 720,
      "type": "SCALAR"
    },
    {
      "bufferView": 2,
      "byteOffset": 25200,
      "componentType": 5126,
      "count": 1509,
      "max": [
        1.0,
        0.12387599796056747,
        0.36461201310157776
      ],
      "min": [
        -1.0,
        -0.12387599796056747,
        -0.36298900842666626
      ],
      "type": "VEC3"
    },
    {
      "bufferView": 2,
      "byteOffset": 43308,
      "componentType": 5126,
      "count": 1509,
      "max": [
        1.0,
        1.0,
        1.0
      ],
      "min": [
        -1.0,
        -1.0,
        -1.0
      ],
      "type": "VEC3"
    },
    {
      "bufferView": 3,
      "byteOffset": 16800,
      "componentType": 5126,
      "count": 1509,
      "max": [
        1.0,
        0.9999920129776001,
        1.0,
        1.0
      ],
      "min": [
        -1.0,
        -0.9999979734420776,
        -1.0,
        -1.0
      ],
      "type": "VEC4"
    },
    {
      "bufferView": 1,
      "byteOffset": 8400,
      "componentType": 5126,
      "count": 1509,
      "max": [
        0.8407430052757263,
        0.9834880232810974
      ],
      "min": [
        0.037664998322725296,
        0.3747299909591675
      ],
      "type": "VEC2"
    },
    {
      "bufferView": 0,
      "byteOffset": 12672,
      "componentType": 5125,
      "count": 3732,
      "type": "SCALAR"
    }
  ],
  "asset": {
    "extras": {
      "author": "NeverSleep (https://sketchfab.com/neversleep)",
      "license": "CC-BY-4.0 (http://creativecommons.org/licenses/by/4.0/)",
      "source": "https://sketchfab.com/3d-models/sith-inquisitor-lightsaber-wip-1e91638c2166494fa9f279ab0662d51a",
      "title": "Sith Inquisitor Lightsaber WIP"
    },
    "generator": "Sketchfab-12.67.0",
    "version": "2.0"
  },
  "bufferViews": [
    {
      "buffer": 0,
      "byteLength": 27600,
      "name": "floatBufferViews",
      "target": 34963
    },
    {
      "buffer": 0,
      "byteLength": 20472,
      "byteOffset": 27600,
      "byteStride": 8,
      "name": "floatBufferViews",
      "target": 34962
    },
    {
      "buffer": 0,
      "byteLength": 61416,
      "byteOffset": 48072,
      "byteStride": 12,
      "name": "floatBufferViews",
      "target": 34962
    },
    {
      "buffer": 0,
      "byteLength": 40944,
      "byteOffset": 109488,
      "byteStride": 16,
      "name": "floatBufferViews",
      "target": 34962
    }
  ],
  "buffers": [
    {
      "byteLength": 150432,
      "uri": "scene.bin"
    }
  ],
  "images": [
    {
      "uri": "textures/Lightsaber_baseColor.jpeg"
    },
    {
      "uri": "textures/Lightsaber_metallicRoughness.png"
    },
    {
      "uri": "textures/Lightsaber_normal.jpeg"
    }
  ],
  "materials": [
    {
      "name": "Lightsaber",
      "normalTexture": {
        "index": 2
      },
      "occlusionTexture": {
        "index": 1
      },
      "pbrMetallicRoughness": {
        "baseColorTexture": {
          "index": 0
        },
        "metallicRoughnessTexture": {
          "index": 1
        }
      }
    }
  ],
  "meshes": [
    {
      "name": "defaultMaterial",
      "primitives": [
        {
          "attributes": {
            "NORMAL": 1,
            "POSITION": 0,
            "TANGENT": 2,
            "TEXCOORD_0": 3
          },
          "indices": 4,
          "material": 0,
          "mode": 4
        }
      ]
    },
    {
      "name": "defaultMaterial",
      "primitives": [
        {
          "attributes": {
            "NORMAL": 6,
            "POSITION": 5,
            "TANGENT": 7,
            "TEXCOORD_0": 8
          },
          "indices": 9,
          "material": 0,
          "mode": 4
        }
      ]
    },
    {
      "name": "defaultMaterial",
      "primitives": [
        {
          "attributes": {
            "NORMAL": 11,
            "POSITION": 10,
            "TANGENT": 12,
            "TEXCOORD_0": 13
          },
          "indices": 14,
          "material": 0,
          "mode": 4
        }
      ]
    },
    {
      "name": "defaultMaterial",
      "primitives": [
        {
          "attributes": {
            "NORMAL": 16,
            "POSITION": 15,
            "TANGENT": 17,
            "TEXCOORD_0": 18
          },
          "indices": 19,
          "material": 0,
          "mode": 4
        }
      ]
    }
  ],
  "nodes": [
    {
      "children": [
        1
      ],
      "matrix": [
        1.0,
        0.0,
        0.0,
        0.0,
        0.0,
        2.220446049250313e-16,
        -1.0,
        0.0,
        0.0,
        1.0,
        2.220446049250313e-16,
        0.0,
        0.0,
        0.0,
        0.0,
        1.0
      ],
      "name": "Sketchfab_model"
    },
    {
      "children": [
        2,
        4,
        6,
        8
      ],
      "matrix": [
        1.0,
        0.0,
        0.0,
        0.0,
        0.0,
        -4.371139006309477e-08,
        0.999999999999999,
        0.0,
        0.0,
        -0.999999999999999,
        -4.371139006309477e-08,
        0.0,
        0.0,
        0.0,
        0.0,
        1.0
      ],
      "name": "Collada visual scene group"
    },
    {
      "children": [
        3
      ],
      "name": "g"
    },
    {
      "mesh": 0,
      "name": "defaultMaterial"
    },
    {
      "children": [
        5
      ],
      "name": "g"
    },
    {
      "mesh": 1,
      "name": "defaultMaterial"
    },
    {
      "children": [
        7
      ],
      "name": "g"
    },
    {
      "mesh": 2,
      "name": "defaultMaterial"
    },
    {
      "children": [
        9
      ],
      "name": "g"
    },
    {
      "mesh": 3,
      "name": "defaultMaterial"
    }
  ],
  "samplers": [
    {
      "magFilter": 9729,
      "minFilter": 9987,
      "wrapS": 10497,
      "wrapT": 10497
    }
  ],
  "scene": 0,
  "scenes": [
    {
      "name": "Sketchfab_Scene",
      "nodes": [
        0
      ]
    }
  ],
  "textures": [
    {
      "sampler": 0,
      "source": 0
    },
    {
      "sampler": 0,
      "source": 1
    },
    {
      "sampler": 0,
      "source": 2
    }
  ]
}
